<?xml version="1.0" encoding="UTF-8"?>
<svg width="170px" height="94px" viewBox="0 0 170 94" version="1.1" xmlns="http://www.w3.org/2000/svg" xmlns:xlink="http://www.w3.org/1999/xlink">
    <title>无任务</title>
    <g id="店铺管理" stroke="none" stroke-width="1" fill="none" fill-rule="evenodd">
        <g id="店铺管理-管理" transform="translate(-735.000000, -384.000000)" fill-rule="nonzero">
            <g id="无任务" transform="translate(735.000000, 384.000000)">
                <path d="M87.340648,93.407996 C84.6572809,93.8032632 81.9416309,93.9345576 79.232648,93.799996 C72.700616,93.469996 66.276594,91.569996 60.786648,87.997996 C58.352566,86.413996 56.030594,84.467996 54.770632,81.853996 C53.060574,78.303996 53.65862,73.809996 56.100612,70.717996 C56.9913608,69.602745 58.0870191,68.6679815 59.32864,67.963996 C59.512624,67.859996 59.700612,67.759996 59.890652,67.663996 C61.9595442,66.6235824 64.2833437,66.1981077 66.586652,66.437996 C70.50257,66.865996 74.116632,69.257996 76.20462,72.599996 C78.064582,75.579996 78.71262,79.095996 79.09466,82.619996 C79.166632,83.283996 79.228644,83.949996 79.288606,84.611996 C78.9558057,86.5299409 78.4325453,88.4099118 77.726594,90.223996 C77.6906904,90.3124028 77.661283,90.4033106 77.638606,90.495996 C78.038606,91.363996 78.4192727,92.239996 78.780606,93.123996 C79.1200996,93.3082904 79.5003699,93.4045567 79.88666,93.403996 L87.324648,93.403996 L87.340648,93.407996 Z" id="路径" fill="#F2F2F2"></path>
                <path d="M78.626586,93.578004 C78.5269864,93.6224675 78.4137005,93.6250585 78.3121723,93.5851949 C78.2106441,93.5453314 78.1293843,93.4663551 78.086644,93.366004 C78.054612,93.290004 78.024632,93.214004 77.992602,93.138004 C77.7046127,92.438004 77.4026267,91.7446707 77.086644,91.058004 C73.041035,82.1968805 67.0066925,74.3879288 59.452562,68.238004 C59.3644062,68.17608 59.3169239,68.0710967 59.328636,67.964004 C59.3508538,67.8418924 59.4276441,67.736623 59.5371374,67.6781759 C59.6466308,67.6197287 59.7768274,67.6145093 59.890648,67.664004 C59.920757,67.6776637 59.9489833,67.6951405 59.974632,67.716004 C63.2066164,70.3483857 66.1715697,73.2925876 68.826586,76.506004 C71.4821622,79.7164206 73.8204301,83.1765867 75.808616,86.838004 C76.350608,87.838004 76.8652567,88.852004 77.352562,89.880004 C77.448656,90.084004 77.544652,90.290004 77.638598,90.495994 C78.038598,91.363994 78.4192647,92.239994 78.780598,93.123994 C78.786652,93.137994 78.79261,93.153994 78.798664,93.167994 C78.8358943,93.2445539 78.8383505,93.3334389 78.805405,93.411938 C78.7724595,93.4904371 78.7073039,93.550946 78.626586,93.578004 L78.626586,93.578004 Z" id="路径" fill="#FFFFFF"></path>
                <circle id="椭圆形" fill="#92B9E3" cx="98.8" cy="36.8" r="7.8"></circle>
                <path d="M98.5952971,32.4 C96.8604728,32.5925684 95.8966545,33.344541 95.703842,34.6551758 C95.6652775,35.0793652 95.8772502,35.3107422 96.3400041,35.3491797 C96.5711271,35.3878613 96.7639396,35.2143359 96.9181974,34.8287109 C97.1495646,34.0191406 97.7078654,33.6143555 98.5952971,33.6143555 C99.6741935,33.6913574 100.252504,34.2311133 100.330365,35.2334961 C100.330365,36.158877 99.7023088,36.3096875 99.3611467,36.5887109 C98.9288517,36.9424023 98.6461369,37.3011328 98.3000627,37.9091797 C98.0092521,38.4200586 97.9591447,39.512959 97.9591447,39.512959 C97.9591447,39.9755859 98.1706193,40.2069629 98.5953068,40.2069629 C98.9801994,40.2069629 99.1929045,39.9755859 99.2315861,39.512959 C99.2315861,39.512959 99.2825529,38.2864551 99.7777287,37.7441211 C100.338979,37.1294531 101.679574,36.6985059 101.718139,35.1179297 C101.563881,33.4601074 100.522934,32.5541309 98.5952971,32.4 Z M98.5952971,40.7901953 C98.1507267,40.7901953 97.7905217,41.1506445 97.7905217,41.5949805 C97.7905217,42.039541 98.1507267,42.3998828 98.5952971,42.3998828 C99.0398674,42.3998828 99.4001994,42.0395508 99.4001994,41.5949805 C99.4001994,41.1506445 99.0398674,40.7901953 98.5952971,40.7901953 L98.5952971,40.7901953 Z" id="形状" fill="#FFFFFF"></path>
                <path d="M169.496938,93.888532 L0.238138,93.888532 C0.106887996,93.8881516 0.000690126802,93.7816456 0.000690126802,93.650395 C0.000690126802,93.5191444 0.106887996,93.4126384 0.238138,93.412258 L169.496938,93.412258 C169.628188,93.4126384 169.734386,93.5191444 169.734386,93.650395 C169.734386,93.7816456 169.628188,93.8881516 169.496938,93.888532 L169.496938,93.888532 Z" id="路径" fill="#3D4656"></path>
                <circle id="椭圆形" fill="#3D4656" cx="33.109168" cy="21.400952" r="5.787988"></circle>
                <ellipse id="椭圆形" fill="#3D4656" transform="translate(27.321179, 17.010066) rotate(-45.000000) translate(-27.321179, -17.010066) " cx="27.3211789" cy="17.0100661" rx="2.39503" ry="1.796272"></ellipse>
                <ellipse id="椭圆形" fill="#3D4656" transform="translate(36.939288, 15.501336) rotate(-66.869560) translate(-36.939288, -15.501336) " cx="36.9392876" cy="15.501336" rx="1.796272" ry="2.39503"></ellipse>
                <path d="M49.226308,54.817412 C49.5223639,54.2546913 49.5539621,53.5897379 49.3126001,53.0014795 C49.071238,52.413221 48.5817094,51.9620856 47.975738,51.769466 L39.612506,34.077652 L35.786924,36.760266 L45.210644,53.307206 C44.9487732,54.369978 45.5231824,55.4606512 46.5476861,55.8459469 C47.5721899,56.2312425 48.7229576,55.7893743 49.226308,54.817418 L49.226308,54.817412 Z" id="路径" fill="#FFB8B8"></path>
                <path d="M41.530412,37.029266 L37.088702,39.01544 C36.832972,39.1297875 36.5401348,39.1271604 36.2864975,39.0082432 C36.0328602,38.889326 35.8435452,38.6658974 35.767884,38.396178 L34.458052,33.725544 C33.8637383,32.3758718 34.4736322,30.7997861 35.821652,30.2017339 C37.1696719,29.6036817 38.7474418,30.209205 39.349228,31.555562 L41.949502,35.63198 C42.1000792,35.8681997 42.1403795,36.1582627 42.0599014,36.4265844 C41.9794232,36.694906 41.786138,36.9149094 41.530412,37.029266 L41.530412,37.029266 Z" id="路径" fill="#CCCCCC"></path>
                <path d="M21.0169,56.571406 C21.6362639,56.4275654 22.1601043,56.0167736 22.4474668,55.449566 C22.7348293,54.8823584 22.7561954,54.2169997 22.505816,53.632524 L30.426282,35.738108 L25.895368,34.596908 L19.534538,52.545382 C18.5591232,53.0419917 18.1093,54.1896695 18.4874911,55.2168144 C18.8656823,56.2439592 19.9523478,56.8259073 21.016906,56.571406 L21.0169,56.571406 Z" id="路径" fill="#FFB8B8"></path>
                <polygon id="路径" fill="#FFB8B8" points="18.8578 89.0066 21.1618 89.8454 25.494 81.3578 22.0934 80.1198"></polygon>
                <path d="M17.8619334,89.3969265 L25.5680774,89.3969265 L25.5680774,92.3743005 L20.8393014,92.3743005 C19.1949458,92.3743005 17.8619334,91.041284 17.8619334,89.3969265 L17.8619334,89.3969265 L17.8619334,89.3969265 Z" id="路径" fill="#3D4656" transform="translate(21.715005, 90.885613) rotate(-159.993480) translate(-21.715005, -90.885613) "></path>
                <path d="M24.30755,84.1222011 C24.1661775,84.1222011 24.0265584,84.090902 23.898776,84.030422 L21.25092,82.776242 C20.8009614,82.5650318 20.5867297,82.0452149 20.757214,81.578302 L28.229968,60.884666 C28.3562913,60.5348685 28.6726889,60.289033 29.0428542,60.2530674 C29.4130195,60.2171017 29.7708237,60.397431 29.962122,60.716368 L33.914592,67.303786 C34.0936555,67.6026243 34.0976311,67.9748049 33.924992,68.2774 L25.14757,83.6378 C24.9744412,83.9379737 24.6540721,84.1227155 24.30755,84.1222011 L24.30755,84.1222011 Z" id="路径" fill="#3D4656"></path>
                <circle id="椭圆形" fill="#FFB8B8" cx="33.292736" cy="22.782678" r="4.912206"></circle>
                <path d="M40.242138,45.116596 L31.544538,42.724686 L26.918616,33.47295 C26.4667682,32.5692603 26.5150606,31.4960429 27.0462462,30.6365876 C27.5774317,29.7771323 28.5157609,29.2540254 29.526118,29.2540254 L36.446,29.2540254 C37.1642764,29.2535683 37.8573698,29.5186463 38.392026,29.998296 C40.24831,31.661196 44.148202,36.455256 40.279774,45.03297 L40.242138,45.116596 Z" id="路径" fill="#CCCCCC"></path>
                <path d="M29.354078,38.938414 L24.947392,36.875698 C24.6936821,36.7569353 24.5042313,36.5336213 24.4284068,36.2639476 C24.3525824,35.9942739 24.3978946,35.7049513 24.552536,35.471372 L27.23063,31.426834 C27.8634792,30.0948545 29.4547939,29.5260977 30.7885542,30.1551851 C32.1223146,30.7842724 32.6955604,32.3739754 32.07024,33.709506 L30.685412,38.342092 C30.6050966,38.6104627 30.4119448,38.8305836 30.156288,38.9450956 C29.9006312,39.0596076 29.6077919,39.0571686 29.354078,38.938414 L29.354078,38.938414 Z" id="路径" fill="#CCCCCC"></path>
                <polygon id="路径" fill="#FFB8B8" points="34.6856 91.3258 37.1374 91.3258 38.304 81.8682 34.685 81.8684"></polygon>
                <path d="M34.1601191,90.6251629 L41.8662651,90.6251629 L41.8662651,93.6025369 L37.1374871,93.6025369 C35.4931323,93.6025369 34.1601191,92.2695217 34.1601191,90.6251629 L34.1601191,90.6251629 L34.1601191,90.6251629 Z" id="路径" fill="#3D4656" transform="translate(38.013192, 92.113850) rotate(179.997380) translate(-38.013192, -92.113850) "></path>
                <path d="M35.611362,87.721877 C35.1569069,87.722542 34.7644851,87.4039067 34.671824,86.958998 C33.967024,83.638216 30.306556,66.628718 27.449582,57.867238 C24.542748,48.95314 29.493242,44.892896 30.51515,44.169532 C30.623979,44.0926527 30.7104457,43.9882579 30.765714,43.867016 L31.508154,42.233804 C31.6653632,41.8894638 32.0090541,41.668492 32.387584,41.668492 L32.393596,41.668492 C37.959314,41.701734 39.830396,43.456204 40.376466,44.209046 C40.5394991,44.4359965 40.5946127,44.7231055 40.527202,44.994292 L37.005666,59.523238 C36.983832,59.6133276 36.9788878,59.7066842 36.991084,59.798576 L40.494738,86.17856 C40.5287419,86.4346939 40.4584524,86.6937533 40.2996511,86.8975742 C40.1408498,87.1013952 39.9068431,87.2328988 39.65017,87.26256 L35.72446,87.715394 C35.6869163,87.7197236 35.6491545,87.721877 35.611362,87.721877 Z" id="路径" fill="#3D4656"></path>
                <path d="M28.131152,19.692916 C29.2536637,20.466586 30.5859949,20.8783343 31.949288,20.872886 C31.4629845,21.210078 30.9093641,21.4378416 30.326566,21.540486 C32.1391673,21.9293002 34.0125098,21.9398265 35.829366,21.571406 C36.2332215,21.5066495 36.6229044,21.37281 36.981322,21.175758 C37.3425334,20.9740322 37.6010221,20.6283321 37.692364,20.224818 C37.813094,19.535114 37.275668,18.908504 36.717164,18.486202 C34.9855495,17.1968558 32.7664014,16.7534098 30.67226,17.278266 C29.997008,17.45281 29.320556,17.747718 28.88196,18.289998 C28.443364,18.832278 28.313446,19.668298 28.731316,20.226704 L28.131152,19.692916 Z" id="路径" fill="#3D4656"></path>
                <circle id="椭圆形" fill="#CCCCCC" cx="119.70061" cy="54.8" r="2.6"></circle>
                <path d="M144.771818,76.507892 C144.74486,76.507892 144.727896,76.507892 144.72197,76.506846 L141.494038,76.507892 L141.494038,76.031254 L144.733638,76.031254 C144.808638,76.033926 146.338946,76.077152 147.74893,74.366278 C149.850106,71.816468 151.57562,65.504342 147.8635,49.913478 C142.872058,28.949356 147.035136,10.428724 149.05666,3.439056 C149.258593,2.73795917 149.119077,1.98271482 148.679992,1.40003292 C148.240907,0.817351022 147.553374,0.475069963 146.823776,0.475936 L98.616938,0.475936 C97.8735908,0.476932636 97.1752853,0.832376483 96.737058,1.432812 C95.880692,2.610812 94.705484,4.873848 93.970078,8.965812 L93.50169,8.881686 C94.253016,4.70083 95.466452,2.371212 96.3521,1.15301 C96.8799944,0.429509197 97.721324,0.00119312943 98.616938,-7.29867452e-06 L146.823786,-7.29867452e-06 C147.702995,-0.00085211095 148.531425,0.411786975 149.060416,1.11405362 C149.589406,1.81632027 149.757374,2.72646018 149.513902,3.571286 C147.502778,10.5247 143.361254,28.949238 148.32655,49.803322 C152.090844,65.613444 150.281204,72.062334 148.100316,74.688252 C146.661808,76.420164 145.076834,76.507892 144.771818,76.507892 Z" id="路径" fill="#E6E6E6"></path>
                <path d="M136.085918,85.193792 C136.05896,85.193792 136.041996,85.193792 136.03607,85.192746 L132.80814,85.193792 L132.80814,84.717154 L136.04774,84.717154 C136.123152,84.719478 137.653048,84.763052 139.063032,83.052178 C141.164208,80.502368 142.889722,74.190242 139.177602,58.599378 C134.18616,37.635256 138.349238,19.114624 140.370762,12.124956 C140.572695,11.4238592 140.433179,10.6686148 139.994094,10.0859329 C139.555009,9.50325102 138.867476,9.16096996 138.137878,9.161836 L89.931036,9.161836 C89.1876888,9.16283264 88.4893833,9.51827648 88.051156,10.118712 C87.19479,11.296712 86.019582,13.559748 85.284204,17.651712 L84.81576,17.567586 C85.567114,13.386728 86.78055,11.05711 87.666198,9.83891 C88.1940924,9.1154092 89.035422,8.68709313 89.931036,8.6858927 L138.137886,8.6858927 C139.017095,8.68504789 139.845525,9.09768697 140.374516,9.79995362 C140.903506,10.5022203 141.071474,11.4123602 140.828002,12.257186 C138.816878,19.2106 134.675354,37.635138 139.640652,58.489222 C143.404944,74.299344 141.595304,80.748234 139.414418,83.374152 C137.975908,85.106066 136.390938,85.193792 136.085918,85.193792 Z" id="路径" fill="#CCCCCC"></path>
                <path d="M130.954612,67.176002 C125.988598,46.322002 130.13059,27.896002 132.142602,20.944002 C132.385462,20.0991571 132.21728,19.1892963 131.688457,18.4870925 C131.159634,17.7848888 130.331621,17.372002 129.452562,17.372002 L81.244652,17.372002 C80.3494134,17.3728786 79.5083178,17.8008448 78.98059,18.524002 C77.03459,21.200002 72.996604,30.074002 77.506664,54.628002 C79.918578,67.764002 79.88264,76.720002 79.094652,82.620002 C78.652562,85.942012 77.970628,88.294002 77.352562,89.880012 L77.286644,90.048012 C77.15647,90.3689311 77.0885946,90.7117022 77.086644,91.058012 C77.077422,91.8489713 77.4071753,92.6060559 77.992602,93.138012 C78.1813148,93.3148447 78.3949095,93.4630845 78.626586,93.578012 C78.8189324,93.6761353 79.0224231,93.7506747 79.23264,93.800012 C79.4467023,93.8522605 79.666294,93.8784503 79.88664,93.878012 L127.350608,93.878012 C127.356664,93.878012 127.372582,93.880012 127.400608,93.880012 C127.704608,93.880012 129.290648,93.792012 130.728636,92.060012 C132.908616,89.433998 134.718578,82.986 130.954612,67.176002 Z M130.376586,91.738002 C128.966624,93.450002 127.436644,93.406002 127.36262,93.4044308 L79.886644,93.4044308 C79.1148749,93.4044308 78.3934171,93.0209628 77.96057,92.382002 C77.5810488,91.8313016 77.463275,91.1414236 77.638598,90.496002 C77.661275,90.4033166 77.6906824,90.3124088 77.726586,90.224002 C78.4325373,88.4099178 78.9557977,86.5299469 79.288598,84.612002 C80.416624,78.462002 80.626586,68.972002 77.974632,54.542002 C73.498656,30.170002 77.456664,21.430002 79.364574,18.804002 C79.8035763,18.2044839 80.501589,17.8495517 81.244652,17.8480014 L129.452562,17.8480014 C130.181754,17.8480014 130.868786,18.1897307 131.307625,18.7720888 C131.746464,19.354447 131.886077,20.1091984 131.684594,20.810002 C129.66262,27.800002 125.500608,46.322002 130.492594,67.286002 C134.204612,82.876002 132.478636,89.188002 130.376586,91.738002 Z" id="形状" fill="#3D4656"></path>
                <path d="M110.052498,56.680066 L85.215298,56.680066 C84.1638815,56.680066 83.31154,55.8277245 83.31154,54.776308 C83.31154,53.7248915 84.1638815,52.87255 85.215298,52.87255 L110.052498,52.87255 C111.103915,52.87255 111.956256,53.7248915 111.956256,54.776308 C111.956256,55.8277245 111.103915,56.680066 110.052498,56.680066 Z" id="路径" fill="#CCCCCC"></path>
                <path d="M111.452498,65.480066 L86.615298,65.480066 C85.5638815,65.480066 84.71154,64.6277245 84.71154,63.576308 C84.71154,62.5248915 85.5638815,61.67255 86.615298,61.67255 L111.452498,61.67255 C112.503915,61.67255 113.356256,62.5248915 113.356256,63.576308 C113.356256,64.6277245 112.503915,65.480066 111.452498,65.480066 Z" id="路径" fill="#CCCCCC"></path>
                <circle id="椭圆形" fill="#CCCCCC" cx="121.30061" cy="63.576304" r="2.6"></circle>
                <path d="M112.652498,74.080066 L87.815298,74.080066 C86.7638815,74.080066 85.91154,73.2277245 85.91154,72.176308 C85.91154,71.1248915 86.7638815,70.27255 87.815298,70.27255 L112.652498,70.27255 C113.703915,70.27255 114.556256,71.1248915 114.556256,72.176308 C114.556256,73.2277245 113.703915,74.080066 112.652498,74.080066 Z" id="路径" fill="#CCCCCC"></path>
                <circle id="椭圆形" fill="#CCCCCC" cx="122.50061" cy="72.176304" r="2.6"></circle>
            </g>
        </g>
    </g>
</svg>