<?xml version="1.0" encoding="UTF-8"?>
<svg width="14px" height="14px" viewBox="0 0 14 14" version="1.1" xmlns="http://www.w3.org/2000/svg" xmlns:xlink="http://www.w3.org/1999/xlink">
    <title>问号-灰色</title>
    <g id="店铺管理" stroke="none" stroke-width="1" fill="none" fill-rule="evenodd">
        <g id="店铺管理-新建任务2" transform="translate(-311.000000, -290.000000)" fill="#999999" fill-rule="nonzero">
            <g id="地区" transform="translate(216.000000, 290.000000)">
                <g id="问号-灰色" transform="translate(95.000000, 0.000000)">
                    <path d="M6.72,0 C10.4313535,0 13.44,3.00864648 13.44,6.72 C13.44,10.4313535 10.4313535,13.44 6.72,13.44 C3.00864648,13.44 0,10.4313535 0,6.72 C0,3.00864648 3.00864648,0 6.72,0 Z M6.72,1 C3.56093123,1 1,3.56093123 1,6.72 C1,9.87906877 3.56093123,12.44 6.72,12.44 C9.87906877,12.44 12.44,9.87906877 12.44,6.72 C12.44,3.56093123 9.87906877,1 6.72,1 Z" id="椭圆形"></path>
                    <path d="M6.71999937,9.44908858 C6.99614272,9.44908858 7.21999937,9.6729462 7.21999937,9.94908858 C7.21999937,10.225231 6.99614272,10.4490886 6.71999937,10.4490886 C6.44385728,10.4490886 6.21999937,10.225231 6.21999937,9.94908858 C6.21999937,9.6729462 6.44385728,9.44908858 6.71999937,9.44908858 Z M6.65082063,3.44908858 C8.09448037,3.44908858 8.95570132,4.7742827 8.52579484,5.88617343 C8.38499577,6.25150227 8.19257039,6.53824565 7.9039323,6.85632967 L7.73028012,7.04016351 L7.48059645,7.29743735 C7.21307823,7.58043856 7.12015084,7.75211038 7.12015084,7.98131797 C7.12015084,8.23966054 6.91002455,8.44908858 6.65082063,8.44908858 C6.39161671,8.44908858 6.18149041,8.23966054 6.18149041,7.98131797 C6.18149041,7.49904648 6.35514259,7.14634744 6.71652686,6.74359695 L6.79631299,6.65659162 C6.85732592,6.59250704 7.0713405,6.37405817 7.11123357,6.33242659 C7.38626107,6.04474767 7.5434867,5.82536325 7.65002466,5.54984637 C7.84761268,5.03904086 7.4223995,4.38462979 6.6503513,4.38462979 C5.94541731,4.38462979 5.55305725,4.85567479 5.5755851,5.25374757 L5.58121707,5.30520234 C5.60991001,5.47202577 5.54594593,5.64128467 5.41396039,5.74778951 C5.28197485,5.85429435 5.10255883,5.88142938 4.94481386,5.81874361 C4.78706888,5.75605785 4.67560463,5.61333087 4.65335123,5.44553352 C4.50879752,4.49455588 5.31416817,3.44908858 6.65082063,3.44908858 Z" id="形状结合"></path>
                </g>
            </g>
        </g>
    </g>
</svg>